# xmcd
#
# Track frame offsets:
#	150
#	14258
#	26497
#	36949
#	48250
#	59639
#	71974
#	85338
#	97918
#	113110
#	125457
#	139608
#	150962
#	162163
#
# Disc length: 2308 seconds
#
# Revision: 1
# Processed by: cddbd v1.5.2PL0 Copyright (c) Steve Scherf et al.
# Submitted via: audiograbber 1.83.01
#
DISCID=b209020e
DTITLE=Dolly Parton - Coat Of Many Colors (Reissue)
DYEAR=2007
DGENRE=Country
TTITLE0=Coat Of Many Colors
TTITLE1=Traveling Man
TTITLE2=My Blue Tears
TTITLE3=If I Lose My Mind
TTITLE4=The Mystery Of The Mystery
TTITLE5=She Never Met A Man (She Didn't Like)
TTITLE6=Early Morning Breeze
TTITLE7=The Way I See You
TTITLE8=Here I Am
TTITLE9=A Better Place To Live
TTITLE10=My Heart Started Breaking
TTITLE11=Just As Good As Gone
TTITLE12=The Tender Touch Of Love
TTITLE13=My Blue Tears (Acoustic Demo)
EXTD=
EXTT0=
EXTT1=
EXTT2=
EXTT3=
EXTT4=
EXTT5=
EXTT6=
EXTT7=
EXTT8=
EXTT9=
EXTT10=
EXTT11=
EXTT12=
EXTT13=
PLAYORDER=
